<?xml version="1.0" standalone="no"?>
<!DOCTYPE svg PUBLIC "-//W3C//DTD SVG 20010904//EN"
 "http://www.w3.org/TR/2001/REC-SVG-20010904/DTD/svg10.dtd">
<svg version="1.0" xmlns="http://www.w3.org/2000/svg"
 width="260.000000pt" height="260.000000pt" viewBox="0 0 260.000000 260.000000"
 preserveAspectRatio="xMidYMid meet">
<metadata>
Created by potrace 1.14, written by Peter Selinger 2001-2017
</metadata>
<g transform="translate(0.000000,260.000000) scale(0.100000,-0.100000)"
fill="#000000" stroke="none">
<path d="M405 2590 c-201 -42 -361 -204 -395 -400 -8 -45 -10 -326 -8 -930 l3
-865 24 -60 c70 -175 211 -296 381 -325 45 -8 326 -10 930 -8 l865 3 60 24
c175 70 296 211 325 381 8 45 10 326 8 930 l-3 865 -24 60 c-69 172 -209 294
-375 324 -71 13 -1728 13 -1791 1z m1516 -453 c57 -35 121 -74 141 -88 l38
-24 -3 -744 -2 -744 -134 -69 c-74 -37 -141 -68 -148 -68 -7 0 -90 48 -185
106 -316 195 -1022 637 -1081 676 l-57 39 2 162 3 162 652 328 c359 180 657
327 661 327 5 0 56 -28 113 -63z"/>
<path d="M1717 2084 c-48 -24 -86 -48 -83 -53 3 -4 44 -32 92 -61 l86 -53 89
44 c49 24 89 46 89 50 0 6 -176 120 -183 118 -1 0 -42 -20 -90 -45z"/>
<path d="M1458 1954 c-49 -24 -88 -46 -88 -48 0 -2 41 -30 92 -61 l92 -57 94
46 c85 43 93 48 76 60 -43 28 -171 106 -175 105 -2 0 -43 -20 -91 -45z"/>
<path d="M1933 1902 l-93 -47 0 -102 c0 -61 4 -103 10 -103 5 0 48 19 95 42
l85 42 0 108 c0 60 -1 108 -2 107 -2 0 -45 -21 -95 -47z"/>
<path d="M1196 1824 l-89 -46 77 -48 c121 -78 104 -76 207 -24 50 25 88 49 83
53 -19 16 -175 111 -182 110 -4 0 -47 -20 -96 -45z"/>
<path d="M1678 1774 l-88 -44 0 -105 c0 -58 2 -105 5 -105 3 0 46 20 95 45
l90 45 0 105 c0 58 -3 105 -7 104 -5 0 -47 -20 -95 -45z"/>
<path d="M943 1697 c-46 -23 -83 -45 -83 -48 0 -4 40 -33 89 -64 l90 -56 92
47 c106 53 108 42 -17 120 -39 24 -75 44 -80 43 -5 0 -46 -19 -91 -42z"/>
<path d="M1418 1644 l-88 -44 0 -105 c0 -58 2 -105 5 -105 3 0 46 20 95 45
l90 45 0 105 c0 58 -3 105 -7 104 -5 0 -47 -20 -95 -45z"/>
<path d="M1933 1612 l-93 -47 0 -102 c0 -61 4 -103 10 -103 5 0 48 19 95 42
l85 42 0 108 c0 60 -1 108 -2 107 -2 0 -45 -21 -95 -47z"/>
<path d="M683 1567 c-46 -23 -83 -44 -83 -47 0 -3 41 -31 91 -62 l92 -57 89
45 c49 24 86 49 83 54 -8 13 -167 110 -180 109 -5 0 -47 -19 -92 -42z"/>
<path d="M1176 1523 l-70 -35 70 -44 c38 -24 72 -44 77 -44 4 0 7 36 7 80 0
44 -3 80 -7 80 -5 -1 -39 -17 -77 -37z"/>
<path d="M1698 1494 c-38 -19 -68 -36 -68 -39 0 -5 89 -63 128 -84 22 -12 22
-11 22 74 0 47 -3 85 -7 85 -5 -1 -38 -17 -75 -36z"/>
<path d="M562 1354 l3 -107 85 -53 c46 -29 88 -50 92 -48 4 3 8 48 8 100 l0
94 -82 53 c-46 29 -89 57 -96 61 -10 6 -12 -14 -10 -100z"/>
<path d="M943 1407 c-46 -23 -83 -44 -83 -48 0 -4 41 -32 90 -63 l90 -56 91
45 c49 25 88 49 85 54 -7 11 -172 111 -182 110 -5 0 -46 -19 -91 -42z"/>
<path d="M1438 1364 c-38 -19 -68 -36 -68 -39 0 -5 134 -85 143 -85 4 0 7 36
7 80 0 44 -3 80 -7 80 -5 -1 -38 -17 -75 -36z"/>
<path d="M1590 1287 l0 -103 85 -52 c47 -28 90 -52 95 -52 6 0 10 40 10 99 l0
99 -89 56 c-48 31 -91 56 -95 56 -3 0 -6 -46 -6 -103z"/>
<path d="M1933 1322 l-93 -47 0 -102 c0 -61 4 -103 10 -103 5 0 48 19 95 42
l85 42 0 108 c0 60 -1 108 -2 107 -2 0 -45 -21 -95 -47z"/>
<path d="M816 1292 c-3 -3 -6 -49 -6 -103 l0 -97 91 -56 c50 -31 93 -56 95
-56 2 0 4 47 4 103 l0 104 -89 55 c-49 31 -92 54 -95 50z"/>
<path d="M1196 1244 c-79 -41 -87 -47 -70 -58 11 -7 54 -34 96 -60 l76 -47 91
46 c50 25 91 47 91 49 0 6 -179 116 -188 115 -4 0 -47 -20 -96 -45z"/>
<path d="M1070 1037 l0 -105 89 -56 c48 -31 91 -56 95 -56 3 0 6 46 6 103 l0
102 -62 39 c-35 22 -78 48 -95 59 l-33 19 0 -105z"/>
<path d="M1438 1074 c-38 -19 -68 -36 -68 -38 0 -5 135 -86 143 -86 4 0 7 36
7 80 0 44 -3 80 -7 80 -5 -1 -38 -17 -75 -36z"/>
<path d="M1590 998 l0 -103 85 -52 c47 -29 90 -53 96 -53 6 0 9 38 7 101 l-3
102 -85 53 c-47 29 -88 53 -92 54 -5 0 -8 -46 -8 -102z"/>
<path d="M1933 1032 l-93 -47 0 -102 c0 -61 4 -103 10 -103 5 0 48 19 95 42
l85 42 0 108 c0 60 -1 108 -2 107 -2 0 -45 -21 -95 -47z"/>
<path d="M1332 873 l3 -107 85 -53 c46 -29 88 -53 92 -53 4 0 8 46 8 103 l-1
102 -95 58 -95 57 3 -107z"/>
<path d="M1590 708 l0 -103 85 -52 c47 -29 90 -53 96 -53 6 0 9 38 7 102 l-3
101 -85 53 c-47 30 -88 54 -92 54 -5 0 -8 -46 -8 -102z"/>
<path d="M1933 742 l-93 -47 0 -102 c0 -61 4 -103 10 -103 5 0 48 19 95 42
l85 42 0 108 c0 60 -1 108 -2 107 -2 0 -45 -21 -95 -47z"/>
</g>
</svg>
